# xmcd
#
# Track frame offsets:
#	150
#	15481
#	31789
#	50555
#	69678
#	85306
#	103408
#	117897
#	133761
#	151618
#	163312
#	178097
#	194316
#	215786
#	231607
#	248553
#	276432
#
# Disc length: 4017 seconds
#
# Revision: 1
# Processed by: cddbd v1.5.2PL0 Copyright (c) Steve Scherf et al.
# Submitted via: audiograbber 1.83.01
#
DISCID=fa0faf11
DTITLE=Martina McBride - ASK1549
DYEAR=1900
DGENRE=Karaoke
TTITLE0=McBride, Martina - Rose Garden (I Never Promised You A)
TTITLE1=McBride, Martina - A Broken Wing
TTITLE2=McBride, Martina - Anyway
TTITLE3=McBride, Martina - Concrete Angel
TTITLE4=McBride, Martina - Happy Girl
TTITLE5=McBride, Martina - How Far
TTITLE6=McBride, Martina - In My Daughter's Eyes
TTITLE7=McBride, Martina - Independence Day
TTITLE8=McBride, Martina - Love Land
TTITLE9=McBride, Martina - My Baby Loves Me
TTITLE10=McBride, Martina - Safe In The Arms Of Love
TTITLE11=McBride, Martina - There You Are
TTITLE12=McBride, Martina - Whatever You Say
TTITLE13=McBride, Martina - When God Fearin' Women Get The Blues
TTITLE14=McBride, Martina - Wild Angels
TTITLE15=McBride, Martina - How I Feel
TTITLE16=Data Track - Data Track
EXTD=
EXTT0=
EXTT1=
EXTT2=
EXTT3=
EXTT4=
EXTT5=
EXTT6=
EXTT7=
EXTT8=
EXTT9=
EXTT10=
EXTT11=
EXTT12=
EXTT13=
EXTT14=
EXTT15=
EXTT16=
PLAYORDER=
